<svg width="350" height="504" viewBox="0 0 350 504" fill="none" xmlns="http://www.w3.org/2000/svg">
<rect width="350" height="504" rx="22.618" fill="#4CBB88"/>
<path d="M127.74 60.165C126.71 60.165 125.81 59.935 125.04 59.475C124.27 59.005 123.67 58.355 123.24 57.525C122.81 56.685 122.595 55.705 122.595 54.585C122.595 53.465 122.815 52.485 123.255 51.645C123.695 50.805 124.305 50.15 125.085 49.68C125.875 49.21 126.785 48.975 127.815 48.975C128.635 48.975 129.375 49.13 130.035 49.44C130.695 49.74 131.245 50.165 131.685 50.715C132.125 51.265 132.41 51.91 132.54 52.65H130.965C130.765 51.94 130.38 51.385 129.81 50.985C129.24 50.585 128.56 50.385 127.77 50.385C127.04 50.385 126.4 50.56 125.85 50.91C125.31 51.25 124.89 51.735 124.59 52.365C124.29 52.985 124.14 53.72 124.14 54.57C124.14 55.41 124.29 56.145 124.59 56.775C124.89 57.405 125.315 57.895 125.865 58.245C126.415 58.585 127.05 58.755 127.77 58.755C128.57 58.755 129.26 58.56 129.84 58.17C130.43 57.77 130.825 57.235 131.025 56.565H132.585C132.435 57.285 132.13 57.915 131.67 58.455C131.22 58.995 130.655 59.415 129.975 59.715C129.305 60.015 128.56 60.165 127.74 60.165ZM133.667 56.325C133.667 55.575 133.832 54.91 134.162 54.33C134.492 53.75 134.942 53.295 135.512 52.965C136.092 52.635 136.752 52.47 137.492 52.47C138.232 52.47 138.887 52.635 139.457 52.965C140.027 53.295 140.477 53.75 140.807 54.33C141.137 54.91 141.302 55.575 141.302 56.325C141.302 57.075 141.137 57.74 140.807 58.32C140.477 58.9 140.027 59.355 139.457 59.685C138.887 60.015 138.232 60.18 137.492 60.18C136.752 60.18 136.092 60.015 135.512 59.685C134.942 59.355 134.492 58.9 134.162 58.32C133.832 57.74 133.667 57.075 133.667 56.325ZM135.092 56.325C135.092 56.835 135.192 57.285 135.392 57.675C135.602 58.065 135.887 58.37 136.247 58.59C136.607 58.81 137.022 58.92 137.492 58.92C137.962 58.92 138.377 58.81 138.737 58.59C139.097 58.37 139.377 58.065 139.577 57.675C139.787 57.285 139.892 56.835 139.892 56.325C139.892 55.805 139.787 55.355 139.577 54.975C139.377 54.585 139.097 54.28 138.737 54.06C138.377 53.84 137.962 53.73 137.492 53.73C137.022 53.73 136.607 53.84 136.247 54.06C135.887 54.28 135.602 54.585 135.392 54.975C135.192 55.355 135.092 55.805 135.092 56.325ZM144.273 60H142.863V52.665H144.138L144.288 53.79C144.518 53.37 144.848 53.045 145.278 52.815C145.718 52.575 146.198 52.455 146.718 52.455C147.678 52.455 148.388 52.73 148.848 53.28C149.308 53.83 149.538 54.575 149.538 55.515V60H148.128V55.83C148.128 55.09 147.968 54.56 147.648 54.24C147.328 53.91 146.898 53.745 146.358 53.745C145.698 53.745 145.183 53.96 144.813 54.39C144.453 54.82 144.273 55.395 144.273 56.115V60ZM150.803 57.87H152.153C152.153 58.24 152.288 58.535 152.558 58.755C152.828 58.965 153.193 59.07 153.653 59.07C154.153 59.07 154.538 58.975 154.808 58.785C155.078 58.585 155.213 58.32 155.213 57.99C155.213 57.75 155.138 57.55 154.988 57.39C154.848 57.23 154.588 57.1 154.208 57L152.918 56.7C152.268 56.54 151.783 56.295 151.463 55.965C151.153 55.635 150.998 55.2 150.998 54.66C150.998 54.21 151.113 53.82 151.343 53.49C151.583 53.16 151.908 52.905 152.318 52.725C152.738 52.545 153.218 52.455 153.758 52.455C154.298 52.455 154.763 52.55 155.153 52.74C155.553 52.93 155.863 53.195 156.083 53.535C156.313 53.875 156.433 54.28 156.443 54.75H155.093C155.083 54.37 154.958 54.075 154.718 53.865C154.478 53.655 154.143 53.55 153.713 53.55C153.273 53.55 152.933 53.645 152.693 53.835C152.453 54.025 152.333 54.285 152.333 54.615C152.333 55.105 152.693 55.44 153.413 55.62L154.703 55.935C155.323 56.075 155.788 56.305 156.098 56.625C156.408 56.935 156.563 57.36 156.563 57.9C156.563 58.36 156.438 58.765 156.188 59.115C155.938 59.455 155.593 59.72 155.153 59.91C154.723 60.09 154.213 60.18 153.623 60.18C152.763 60.18 152.078 59.97 151.568 59.55C151.058 59.13 150.803 58.57 150.803 57.87ZM157.347 52.665H161.637V53.85H157.347V52.665ZM160.197 60H158.787V50.37H160.197V60ZM167.102 52.605V53.895H166.472C165.802 53.895 165.272 54.09 164.882 54.48C164.502 54.86 164.312 55.405 164.312 56.115V60H162.902V52.68H164.222L164.342 54.15H164.207C164.307 53.67 164.547 53.28 164.927 52.98C165.307 52.67 165.782 52.515 166.352 52.515C166.482 52.515 166.602 52.525 166.712 52.545C166.832 52.555 166.962 52.575 167.102 52.605ZM173.495 52.665H174.89V60H173.63L173.48 58.89C173.27 59.27 172.94 59.58 172.49 59.82C172.04 60.06 171.545 60.18 171.005 60.18C170.155 60.18 169.495 59.915 169.025 59.385C168.565 58.845 168.335 58.125 168.335 57.225V52.665H169.745V56.76C169.745 57.54 169.9 58.1 170.21 58.44C170.53 58.77 170.96 58.935 171.5 58.935C172.15 58.935 172.645 58.735 172.985 58.335C173.325 57.925 173.495 57.325 173.495 56.535V52.665ZM176.936 60V52.665H178.346V60H176.936ZM177.626 50.925C177.376 50.925 177.156 50.835 176.966 50.655C176.786 50.465 176.696 50.245 176.696 49.995C176.696 49.735 176.786 49.515 176.966 49.335C177.156 49.155 177.376 49.065 177.626 49.065C177.886 49.065 178.106 49.155 178.286 49.335C178.466 49.515 178.556 49.735 178.556 49.995C178.556 50.245 178.466 50.465 178.286 50.655C178.106 50.835 177.886 50.925 177.626 50.925ZM184.593 52.605V53.895H183.963C183.293 53.895 182.763 54.09 182.373 54.48C181.993 54.86 181.803 55.405 181.803 56.115V60H180.393V52.68H181.713L181.833 54.15H181.698C181.798 53.67 182.038 53.28 182.418 52.98C182.798 52.67 183.273 52.515 183.843 52.515C183.973 52.515 184.093 52.525 184.203 52.545C184.323 52.555 184.453 52.575 184.593 52.605ZM188.816 60.18C188.106 60.18 187.476 60.02 186.926 59.7C186.376 59.37 185.946 58.92 185.636 58.35C185.326 57.77 185.171 57.1 185.171 56.34C185.171 55.57 185.321 54.895 185.621 54.315C185.931 53.735 186.351 53.28 186.881 52.95C187.421 52.62 188.046 52.455 188.756 52.455C189.456 52.455 190.061 52.605 190.571 52.905C191.091 53.205 191.491 53.625 191.771 54.165C192.061 54.705 192.206 55.34 192.206 56.07V56.595L185.921 56.61L185.951 55.665H190.796C190.796 55.055 190.611 54.565 190.241 54.195C189.871 53.825 189.376 53.64 188.756 53.64C188.286 53.64 187.881 53.745 187.541 53.955C187.211 54.155 186.956 54.455 186.776 54.855C186.606 55.245 186.521 55.715 186.521 56.265C186.521 57.145 186.721 57.825 187.121 58.305C187.521 58.775 188.096 59.01 188.846 59.01C189.396 59.01 189.846 58.9 190.196 58.68C190.546 58.46 190.781 58.14 190.901 57.72H192.221C192.041 58.5 191.656 59.105 191.066 59.535C190.476 59.965 189.726 60.18 188.816 60.18ZM200.028 60.18C199.248 60.18 198.633 59.975 198.183 59.565C197.743 59.155 197.523 58.62 197.523 57.96C197.523 57.29 197.763 56.755 198.243 56.355C198.723 55.945 199.393 55.705 200.253 55.635L202.563 55.455V55.245C202.563 54.835 202.488 54.51 202.338 54.27C202.188 54.02 201.983 53.845 201.723 53.745C201.463 53.635 201.168 53.58 200.838 53.58C200.248 53.58 199.788 53.705 199.458 53.955C199.138 54.195 198.978 54.54 198.978 54.99H197.748C197.748 54.48 197.878 54.035 198.138 53.655C198.398 53.275 198.763 52.98 199.233 52.77C199.713 52.56 200.268 52.455 200.898 52.455C201.508 52.455 202.038 52.565 202.488 52.785C202.948 52.995 203.303 53.32 203.553 53.76C203.813 54.19 203.943 54.735 203.943 55.395V60H202.743L202.593 58.815C202.403 59.235 202.073 59.57 201.603 59.82C201.143 60.06 200.618 60.18 200.028 60.18ZM200.433 59.085C201.103 59.085 201.628 58.885 202.008 58.485C202.388 58.075 202.578 57.525 202.578 56.835V56.445L200.703 56.595C200.083 56.655 199.633 56.8 199.353 57.03C199.083 57.26 198.948 57.555 198.948 57.915C198.948 58.305 199.078 58.6 199.338 58.8C199.608 58.99 199.973 59.085 200.433 59.085ZM207.658 60L204.703 52.665H206.203L207.808 56.76C207.938 57.1 208.053 57.425 208.153 57.735C208.253 58.035 208.333 58.295 208.393 58.515C208.463 58.265 208.548 57.99 208.648 57.69C208.758 57.39 208.878 57.08 209.008 56.76L210.643 52.665H212.113L209.053 60H207.658ZM216.062 60.18C215.352 60.18 214.722 60.02 214.172 59.7C213.622 59.37 213.192 58.92 212.882 58.35C212.572 57.77 212.417 57.1 212.417 56.34C212.417 55.57 212.567 54.895 212.867 54.315C213.177 53.735 213.597 53.28 214.127 52.95C214.667 52.62 215.292 52.455 216.002 52.455C216.702 52.455 217.307 52.605 217.817 52.905C218.337 53.205 218.737 53.625 219.017 54.165C219.307 54.705 219.452 55.34 219.452 56.07V56.595L213.167 56.61L213.197 55.665H218.042C218.042 55.055 217.857 54.565 217.487 54.195C217.117 53.825 216.622 53.64 216.002 53.64C215.532 53.64 215.127 53.745 214.787 53.955C214.457 54.155 214.202 54.455 214.022 54.855C213.852 55.245 213.767 55.715 213.767 56.265C213.767 57.145 213.967 57.825 214.367 58.305C214.767 58.775 215.342 59.01 216.092 59.01C216.642 59.01 217.092 58.9 217.442 58.68C217.792 58.46 218.027 58.14 218.147 57.72H219.467C219.287 58.5 218.902 59.105 218.312 59.535C217.722 59.965 216.972 60.18 216.062 60.18ZM220.547 56.34C220.547 55.57 220.697 54.895 220.997 54.315C221.307 53.735 221.732 53.28 222.272 52.95C222.812 52.62 223.437 52.455 224.147 52.455C225.067 52.455 225.832 52.7 226.442 53.19C227.052 53.68 227.417 54.33 227.537 55.14H226.127C226.007 54.67 225.772 54.315 225.422 54.075C225.072 53.835 224.662 53.715 224.192 53.715C223.752 53.715 223.362 53.825 223.022 54.045C222.682 54.255 222.417 54.555 222.227 54.945C222.037 55.335 221.942 55.795 221.942 56.325C221.942 56.855 222.032 57.315 222.212 57.705C222.392 58.085 222.647 58.385 222.977 58.605C223.307 58.815 223.692 58.92 224.132 58.92C224.632 58.92 225.062 58.795 225.422 58.545C225.782 58.295 226.022 57.955 226.142 57.525H227.552C227.462 58.055 227.257 58.52 226.937 58.92C226.627 59.31 226.227 59.62 225.737 59.85C225.257 60.07 224.722 60.18 224.132 60.18C223.412 60.18 222.782 60.02 222.242 59.7C221.712 59.38 221.297 58.935 220.997 58.365C220.697 57.785 220.547 57.11 220.547 56.34ZM112.087 76.87H113.437C113.437 77.24 113.572 77.535 113.842 77.755C114.112 77.965 114.477 78.07 114.937 78.07C115.437 78.07 115.822 77.975 116.092 77.785C116.362 77.585 116.497 77.32 116.497 76.99C116.497 76.75 116.422 76.55 116.272 76.39C116.132 76.23 115.872 76.1 115.492 76L114.202 75.7C113.552 75.54 113.067 75.295 112.747 74.965C112.437 74.635 112.282 74.2 112.282 73.66C112.282 73.21 112.397 72.82 112.627 72.49C112.867 72.16 113.192 71.905 113.602 71.725C114.022 71.545 114.502 71.455 115.042 71.455C115.582 71.455 116.047 71.55 116.437 71.74C116.837 71.93 117.147 72.195 117.367 72.535C117.597 72.875 117.717 73.28 117.727 73.75H116.377C116.367 73.37 116.242 73.075 116.002 72.865C115.762 72.655 115.427 72.55 114.997 72.55C114.557 72.55 114.217 72.645 113.977 72.835C113.737 73.025 113.617 73.285 113.617 73.615C113.617 74.105 113.977 74.44 114.697 74.62L115.987 74.935C116.607 75.075 117.072 75.305 117.382 75.625C117.692 75.935 117.847 76.36 117.847 76.9C117.847 77.36 117.722 77.765 117.472 78.115C117.222 78.455 116.877 78.72 116.437 78.91C116.007 79.09 115.497 79.18 114.907 79.18C114.047 79.18 113.362 78.97 112.852 78.55C112.342 78.13 112.087 77.57 112.087 76.87ZM118.631 71.665H122.921V72.85H118.631V71.665ZM121.481 79H120.071V69.37H121.481V79ZM128.387 71.605V72.895H127.757C127.087 72.895 126.557 73.09 126.167 73.48C125.787 73.86 125.597 74.405 125.597 75.115V79H124.187V71.68H125.507L125.627 73.15H125.492C125.592 72.67 125.832 72.28 126.212 71.98C126.592 71.67 127.067 71.515 127.637 71.515C127.767 71.515 127.887 71.525 127.997 71.545C128.117 71.555 128.247 71.575 128.387 71.605ZM134.779 71.665H136.174V79H134.914L134.764 77.89C134.554 78.27 134.224 78.58 133.774 78.82C133.324 79.06 132.829 79.18 132.289 79.18C131.439 79.18 130.779 78.915 130.309 78.385C129.849 77.845 129.619 77.125 129.619 76.225V71.665H131.029V75.76C131.029 76.54 131.184 77.1 131.494 77.44C131.814 77.77 132.244 77.935 132.784 77.935C133.434 77.935 133.929 77.735 134.269 77.335C134.609 76.925 134.779 76.325 134.779 75.535V71.665ZM137.593 75.34C137.593 74.57 137.743 73.895 138.043 73.315C138.353 72.735 138.778 72.28 139.318 71.95C139.858 71.62 140.483 71.455 141.193 71.455C142.113 71.455 142.878 71.7 143.488 72.19C144.098 72.68 144.463 73.33 144.583 74.14H143.173C143.053 73.67 142.818 73.315 142.468 73.075C142.118 72.835 141.708 72.715 141.238 72.715C140.798 72.715 140.408 72.825 140.068 73.045C139.728 73.255 139.463 73.555 139.273 73.945C139.083 74.335 138.988 74.795 138.988 75.325C138.988 75.855 139.078 76.315 139.258 76.705C139.438 77.085 139.693 77.385 140.023 77.605C140.353 77.815 140.738 77.92 141.178 77.92C141.678 77.92 142.108 77.795 142.468 77.545C142.828 77.295 143.068 76.955 143.188 76.525H144.598C144.508 77.055 144.303 77.52 143.983 77.92C143.673 78.31 143.273 78.62 142.783 78.85C142.303 79.07 141.768 79.18 141.178 79.18C140.458 79.18 139.828 79.02 139.288 78.7C138.758 78.38 138.343 77.935 138.043 77.365C137.743 76.785 137.593 76.11 137.593 75.34ZM145.306 71.665H149.596V72.85H145.306V71.665ZM148.156 79H146.746V69.37H148.156V79ZM155.931 71.665H157.326V79H156.066L155.916 77.89C155.706 78.27 155.376 78.58 154.926 78.82C154.476 79.06 153.981 79.18 153.441 79.18C152.591 79.18 151.931 78.915 151.461 78.385C151.001 77.845 150.771 77.125 150.771 76.225V71.665H152.181V75.76C152.181 76.54 152.336 77.1 152.646 77.44C152.966 77.77 153.396 77.935 153.936 77.935C154.586 77.935 155.081 77.735 155.421 77.335C155.761 76.925 155.931 76.325 155.931 75.535V71.665ZM163.572 71.605V72.895H162.942C162.272 72.895 161.742 73.09 161.352 73.48C160.972 73.86 160.782 74.405 160.782 75.115V79H159.372V71.68H160.692L160.812 73.15H160.677C160.777 72.67 161.017 72.28 161.397 71.98C161.777 71.67 162.252 71.515 162.822 71.515C162.952 71.515 163.072 71.525 163.182 71.545C163.302 71.555 163.432 71.575 163.572 71.605ZM167.796 79.18C167.086 79.18 166.456 79.02 165.906 78.7C165.356 78.37 164.926 77.92 164.616 77.35C164.306 76.77 164.151 76.1 164.151 75.34C164.151 74.57 164.301 73.895 164.601 73.315C164.911 72.735 165.331 72.28 165.861 71.95C166.401 71.62 167.026 71.455 167.736 71.455C168.436 71.455 169.041 71.605 169.551 71.905C170.071 72.205 170.471 72.625 170.751 73.165C171.041 73.705 171.186 74.34 171.186 75.07V75.595L164.901 75.61L164.931 74.665H169.776C169.776 74.055 169.591 73.565 169.221 73.195C168.851 72.825 168.356 72.64 167.736 72.64C167.266 72.64 166.861 72.745 166.521 72.955C166.191 73.155 165.936 73.455 165.756 73.855C165.586 74.245 165.501 74.715 165.501 75.265C165.501 76.145 165.701 76.825 166.101 77.305C166.501 77.775 167.076 78.01 167.826 78.01C168.376 78.01 168.826 77.9 169.176 77.68C169.526 77.46 169.761 77.14 169.881 76.72H171.201C171.021 77.5 170.636 78.105 170.046 78.535C169.456 78.965 168.706 79.18 167.796 79.18ZM180.027 79.18C179.317 79.18 178.687 79.02 178.137 78.7C177.587 78.37 177.157 77.92 176.847 77.35C176.537 76.77 176.382 76.1 176.382 75.34C176.382 74.57 176.532 73.895 176.832 73.315C177.142 72.735 177.562 72.28 178.092 71.95C178.632 71.62 179.257 71.455 179.967 71.455C180.667 71.455 181.272 71.605 181.782 71.905C182.302 72.205 182.702 72.625 182.982 73.165C183.272 73.705 183.417 74.34 183.417 75.07V75.595L177.132 75.61L177.162 74.665H182.007C182.007 74.055 181.822 73.565 181.452 73.195C181.082 72.825 180.587 72.64 179.967 72.64C179.497 72.64 179.092 72.745 178.752 72.955C178.422 73.155 178.167 73.455 177.987 73.855C177.817 74.245 177.732 74.715 177.732 75.265C177.732 76.145 177.932 76.825 178.332 77.305C178.732 77.775 179.307 78.01 180.057 78.01C180.607 78.01 181.057 77.9 181.407 77.68C181.757 77.46 181.992 77.14 182.112 76.72H183.432C183.252 77.5 182.867 78.105 182.277 78.535C181.687 78.965 180.937 79.18 180.027 79.18ZM184.139 71.665H188.429V72.85H184.139V71.665ZM186.989 79H185.579V69.37H186.989V79ZM193.016 71.665H199.286V72.85H193.016V71.665ZM197.201 68.02V69.235C197.111 69.235 197.011 69.235 196.901 69.235C196.801 69.235 196.691 69.235 196.571 69.235C196.141 69.235 195.856 69.345 195.716 69.565C195.576 69.785 195.506 70.095 195.506 70.495V79H194.096V70.495C194.096 69.895 194.196 69.41 194.396 69.04C194.596 68.66 194.861 68.385 195.191 68.215C195.531 68.045 195.911 67.96 196.331 67.96C196.471 67.96 196.616 67.965 196.766 67.975C196.916 67.985 197.061 68 197.201 68.02ZM200.036 79H198.641V67.96H200.036V79ZM207.172 71.665H208.567V79H207.307L207.157 77.89C206.947 78.27 206.617 78.58 206.167 78.82C205.717 79.06 205.222 79.18 204.682 79.18C203.832 79.18 203.172 78.915 202.702 78.385C202.242 77.845 202.012 77.125 202.012 76.225V71.665H203.422V75.76C203.422 76.54 203.577 77.1 203.887 77.44C204.207 77.77 204.637 77.935 205.177 77.935C205.827 77.935 206.322 77.735 206.662 77.335C207.002 76.925 207.172 76.325 207.172 75.535V71.665ZM210.612 79V71.665H212.022V79H210.612ZM211.302 69.925C211.052 69.925 210.832 69.835 210.642 69.655C210.462 69.465 210.372 69.245 210.372 68.995C210.372 68.735 210.462 68.515 210.642 68.335C210.832 68.155 211.052 68.065 211.302 68.065C211.562 68.065 211.782 68.155 211.962 68.335C212.142 68.515 212.232 68.735 212.232 68.995C212.232 69.245 212.142 69.465 211.962 69.655C211.782 69.835 211.562 69.925 211.302 69.925ZM217.009 79.18C216.299 79.18 215.689 79.02 215.179 78.7C214.669 78.37 214.274 77.915 213.994 77.335C213.724 76.755 213.589 76.095 213.589 75.355C213.589 74.605 213.729 73.94 214.009 73.36C214.289 72.77 214.689 72.305 215.209 71.965C215.729 71.625 216.349 71.455 217.069 71.455C217.639 71.455 218.144 71.575 218.584 71.815C219.034 72.045 219.384 72.39 219.634 72.85V67.96H221.029V79H219.769L219.649 77.665C219.409 78.155 219.054 78.53 218.584 78.79C218.124 79.05 217.599 79.18 217.009 79.18ZM217.294 77.905C217.774 77.905 218.184 77.795 218.524 77.575C218.874 77.355 219.144 77.05 219.334 76.66C219.524 76.27 219.619 75.82 219.619 75.31C219.619 74.8 219.524 74.355 219.334 73.975C219.144 73.585 218.874 73.28 218.524 73.06C218.184 72.84 217.774 72.73 217.294 72.73C216.814 72.73 216.404 72.845 216.064 73.075C215.724 73.295 215.464 73.6 215.284 73.99C215.104 74.37 215.014 74.81 215.014 75.31C215.014 75.82 215.104 76.27 215.284 76.66C215.464 77.05 215.724 77.355 216.064 77.575C216.404 77.795 216.814 77.905 217.294 77.905ZM223.063 79V71.665H224.473V79H223.063ZM223.753 69.925C223.503 69.925 223.283 69.835 223.093 69.655C222.913 69.465 222.823 69.245 222.823 68.995C222.823 68.735 222.913 68.515 223.093 68.335C223.283 68.155 223.503 68.065 223.753 68.065C224.013 68.065 224.233 68.155 224.413 68.335C224.593 68.515 224.683 68.735 224.683 68.995C224.683 69.245 224.593 69.465 224.413 69.655C224.233 69.835 224.013 69.925 223.753 69.925ZM225.74 71.665H230.03V72.85H225.74V71.665ZM228.59 79H227.18V69.37H228.59V79ZM234.388 79.18C233.678 79.18 233.048 79.02 232.498 78.7C231.948 78.37 231.518 77.92 231.208 77.35C230.898 76.77 230.743 76.1 230.743 75.34C230.743 74.57 230.893 73.895 231.193 73.315C231.503 72.735 231.923 72.28 232.453 71.95C232.993 71.62 233.618 71.455 234.328 71.455C235.028 71.455 235.633 71.605 236.143 71.905C236.663 72.205 237.063 72.625 237.343 73.165C237.633 73.705 237.778 74.34 237.778 75.07V75.595L231.493 75.61L231.523 74.665H236.368C236.368 74.055 236.183 73.565 235.813 73.195C235.443 72.825 234.948 72.64 234.328 72.64C233.858 72.64 233.453 72.745 233.113 72.955C232.783 73.155 232.528 73.455 232.348 73.855C232.178 74.245 232.093 74.715 232.093 75.265C232.093 76.145 232.293 76.825 232.693 77.305C233.093 77.775 233.668 78.01 234.418 78.01C234.968 78.01 235.418 77.9 235.768 77.68C236.118 77.46 236.353 77.14 236.473 76.72H237.793C237.613 77.5 237.228 78.105 236.638 78.535C236.048 78.965 235.298 79.18 234.388 79.18ZM236.203 68.815L234.913 70.81H233.818L234.823 68.815H236.203Z" fill="#415366"/>
<path d="M110.402 218.882H97.9576L81.7736 173.322H93.1976L101.018 197.87L104.35 212.422L107.75 197.87L115.57 173.322H126.586L110.402 218.882ZM139.589 219.562C133.265 219.562 129.321 215.686 129.321 208.818V185.562H139.045V205.418C139.045 209.498 140.133 212.014 144.621 212.014C149.245 212.014 150.673 209.43 150.673 203.99V185.562H160.397V218.882H150.673V209.566C149.517 214.87 146.321 219.562 139.589 219.562ZM182.683 219.562C172.075 219.562 165.615 212.49 165.615 202.222C165.615 191.954 172.075 184.882 181.867 184.882C192.475 184.882 197.779 191.954 197.779 200.658C197.779 202.086 197.643 203.99 197.439 204.738H174.727C175.339 209.43 178.467 211.674 182.819 211.674C187.511 211.674 190.027 209.634 191.251 206.778L197.167 212.694C194.651 216.298 190.163 219.562 182.683 219.562ZM181.935 192.362C177.787 192.362 175.203 194.674 174.727 199.162H189.007C188.667 194.742 186.287 192.362 181.935 192.362ZM212.218 218.882H201.882V208.342H212.218V218.882ZM232.085 181.618H222.361V173.322H232.085V181.618ZM220.593 232.21C215.017 232.21 211.685 229.762 209.849 227.79L214.813 221.058C215.833 222.69 217.329 223.778 219.233 223.778C221.273 223.778 222.361 222.758 222.361 220.038V185.562H232.085V219.97C232.085 226.634 228.141 232.21 220.593 232.21ZM253.787 219.562C246.375 219.562 239.779 216.842 236.923 212.83L241.411 206.234C244.199 209.226 249.027 212.15 254.059 212.15C256.711 212.15 258.275 211.334 258.275 209.566C258.275 207.798 256.371 207.118 252.835 206.234L248.347 205.146C242.363 203.582 238.011 201.202 238.011 195.354C238.011 188.826 243.315 184.95 251.475 184.95C258.683 184.95 263.919 188.078 266.231 191.002L261.879 197.53C258.615 194.13 254.535 192.294 250.659 192.294C248.279 192.294 246.851 193.178 246.851 194.81C246.851 196.578 248.279 197.258 252.699 198.482L256.439 199.502C263.783 201.474 266.979 204.33 266.979 209.43C266.979 215.89 261.539 219.562 253.787 219.562Z" fill="#415366"/>
<rect x="122.667" y="250.5" width="104.665" height="34.618" rx="17.309" fill="#415366"/>
<path d="M141.675 262.575V272.809H139.883V262.575H141.675ZM146.211 264.227H140.023V262.575H146.211V264.227ZM145.483 268.623H139.995V267.013H145.483V268.623ZM151.491 265.865V267.447H150.861C150.235 267.447 149.745 267.615 149.391 267.951C149.036 268.278 148.859 268.777 148.859 269.449V272.809H147.151V265.907H148.761L148.901 267.335H148.733C148.826 266.878 149.045 266.504 149.391 266.215C149.736 265.926 150.184 265.781 150.735 265.781C150.856 265.781 150.977 265.786 151.099 265.795C151.22 265.804 151.351 265.828 151.491 265.865ZM154.431 272.991C153.703 272.991 153.125 272.795 152.695 272.403C152.275 272.002 152.065 271.479 152.065 270.835C152.065 270.2 152.285 269.696 152.723 269.323C153.171 268.94 153.806 268.716 154.627 268.651L156.699 268.483V268.329C156.699 268.012 156.639 267.76 156.517 267.573C156.405 267.377 156.242 267.237 156.027 267.153C155.813 267.06 155.561 267.013 155.271 267.013C154.767 267.013 154.38 267.116 154.109 267.321C153.839 267.517 153.703 267.797 153.703 268.161H152.247C152.247 267.657 152.373 267.223 152.625 266.859C152.887 266.486 153.251 266.196 153.717 265.991C154.193 265.786 154.739 265.683 155.355 265.683C155.981 265.683 156.517 265.795 156.965 266.019C157.413 266.234 157.759 266.56 158.001 266.999C158.244 267.428 158.365 267.965 158.365 268.609V272.809H156.867L156.741 271.787C156.592 272.142 156.303 272.431 155.873 272.655C155.453 272.879 154.973 272.991 154.431 272.991ZM154.977 271.703C155.509 271.703 155.929 271.554 156.237 271.255C156.555 270.956 156.713 270.541 156.713 270.009V269.645L155.271 269.757C154.739 269.804 154.361 269.916 154.137 270.093C153.913 270.261 153.801 270.485 153.801 270.765C153.801 271.073 153.904 271.306 154.109 271.465C154.315 271.624 154.604 271.703 154.977 271.703ZM161.751 272.809H160.043V265.893H161.611L161.821 267.125L161.625 266.957C161.765 266.621 162.022 266.327 162.395 266.075C162.768 265.814 163.235 265.683 163.795 265.683C164.402 265.683 164.896 265.842 165.279 266.159C165.671 266.476 165.942 266.896 166.091 267.419H165.811C165.914 266.896 166.175 266.476 166.595 266.159C167.024 265.842 167.542 265.683 168.149 265.683C168.989 265.683 169.633 265.921 170.081 266.397C170.529 266.864 170.753 267.494 170.753 268.287V272.809H169.059V268.735C169.059 268.24 168.933 267.867 168.681 267.615C168.438 267.354 168.112 267.223 167.701 267.223C167.44 267.223 167.197 267.284 166.973 267.405C166.758 267.526 166.586 267.708 166.455 267.951C166.324 268.194 166.259 268.506 166.259 268.889V272.809H164.551V268.721C164.551 268.236 164.43 267.867 164.187 267.615C163.944 267.363 163.622 267.237 163.221 267.237C162.95 267.237 162.703 267.298 162.479 267.419C162.255 267.531 162.078 267.713 161.947 267.965C161.816 268.208 161.751 268.516 161.751 268.889V272.809ZM175.524 272.991C174.843 272.991 174.236 272.837 173.704 272.529C173.181 272.212 172.771 271.782 172.472 271.241C172.173 270.69 172.024 270.06 172.024 269.351C172.024 268.632 172.169 267.998 172.458 267.447C172.747 266.896 173.153 266.467 173.676 266.159C174.199 265.842 174.796 265.683 175.468 265.683C176.168 265.683 176.77 265.832 177.274 266.131C177.778 266.42 178.165 266.826 178.436 267.349C178.716 267.872 178.856 268.497 178.856 269.225V269.743L172.92 269.757L172.948 268.665H177.162C177.162 268.189 177.008 267.806 176.7 267.517C176.401 267.228 175.995 267.083 175.482 267.083C175.081 267.083 174.74 267.167 174.46 267.335C174.189 267.503 173.984 267.755 173.844 268.091C173.704 268.427 173.634 268.838 173.634 269.323C173.634 270.07 173.793 270.634 174.11 271.017C174.437 271.4 174.917 271.591 175.552 271.591C176.019 271.591 176.401 271.502 176.7 271.325C177.008 271.148 177.209 270.896 177.302 270.569H178.884C178.735 271.325 178.361 271.918 177.764 272.347C177.176 272.776 176.429 272.991 175.524 272.991ZM181.462 272.809L179.222 265.893H181L181.91 268.861C181.984 269.132 182.059 269.416 182.134 269.715C182.208 270.014 182.274 270.326 182.33 270.653C182.376 270.429 182.418 270.224 182.456 270.037C182.502 269.85 182.554 269.668 182.61 269.491C182.666 269.304 182.731 269.094 182.806 268.861L183.758 265.893H185.494L186.418 268.861C186.436 268.926 186.464 269.038 186.502 269.197C186.548 269.346 186.595 269.51 186.642 269.687C186.688 269.864 186.73 270.042 186.768 270.219C186.814 270.387 186.847 270.532 186.866 270.653C186.903 270.476 186.95 270.275 187.006 270.051C187.062 269.827 187.118 269.612 187.174 269.407C187.239 269.192 187.29 269.01 187.328 268.861L188.252 265.893H190.058L187.664 272.809H186.068L185.116 269.813C184.976 269.356 184.864 268.968 184.78 268.651C184.696 268.324 184.64 268.072 184.612 267.895C184.584 268.063 184.532 268.287 184.458 268.567C184.383 268.847 184.257 269.272 184.08 269.841L183.128 272.809H181.462ZM190.358 269.337C190.358 268.618 190.517 267.988 190.834 267.447C191.151 266.896 191.59 266.467 192.15 266.159C192.71 265.851 193.345 265.697 194.054 265.697C194.773 265.697 195.407 265.851 195.958 266.159C196.518 266.467 196.957 266.896 197.274 267.447C197.591 267.988 197.75 268.618 197.75 269.337C197.75 270.056 197.591 270.69 197.274 271.241C196.957 271.782 196.518 272.207 195.958 272.515C195.407 272.823 194.773 272.977 194.054 272.977C193.345 272.977 192.71 272.823 192.15 272.515C191.59 272.207 191.151 271.782 190.834 271.241C190.517 270.69 190.358 270.056 190.358 269.337ZM192.066 269.337C192.066 269.757 192.15 270.126 192.318 270.443C192.495 270.76 192.729 271.008 193.018 271.185C193.317 271.362 193.662 271.451 194.054 271.451C194.446 271.451 194.791 271.362 195.09 271.185C195.389 271.008 195.622 270.76 195.79 270.443C195.958 270.126 196.042 269.757 196.042 269.337C196.042 268.908 195.958 268.539 195.79 268.231C195.622 267.914 195.389 267.666 195.09 267.489C194.791 267.312 194.446 267.223 194.054 267.223C193.662 267.223 193.317 267.312 193.018 267.489C192.729 267.666 192.495 267.914 192.318 268.231C192.15 268.539 192.066 268.908 192.066 269.337ZM203.444 265.865V267.447H202.814C202.188 267.447 201.698 267.615 201.344 267.951C200.989 268.278 200.812 268.777 200.812 269.449V272.809H199.104V265.907H200.714L200.854 267.335H200.686C200.779 266.878 200.998 266.504 201.344 266.215C201.689 265.926 202.137 265.781 202.688 265.781C202.809 265.781 202.93 265.786 203.052 265.795C203.173 265.804 203.304 265.828 203.444 265.865ZM206.322 272.809H204.628V262.393H206.322V268.791L209.01 265.893H211.152L208.52 268.637L211.096 272.809H209.136L207.33 269.897L206.322 270.947V272.809Z" fill="#4CBB88"/>
<path d="M136.399 376.16V388H133.807V376.16H136.399ZM138.607 384.064H135.759V381.76H138.031C138.66 381.76 139.13 381.627 139.439 381.36C139.748 381.083 139.903 380.667 139.903 380.112C139.903 379.557 139.748 379.147 139.439 378.88C139.13 378.603 138.66 378.464 138.031 378.464H135.759V376.16H138.607C139.418 376.16 140.122 376.325 140.719 376.656C141.327 376.987 141.796 377.451 142.127 378.048C142.468 378.635 142.639 379.323 142.639 380.112C142.639 380.901 142.468 381.595 142.127 382.192C141.796 382.779 141.327 383.237 140.719 383.568C140.122 383.899 139.418 384.064 138.607 384.064ZM156.82 382.064C156.82 383.269 156.574 384.336 156.084 385.264C155.593 386.181 154.91 386.901 154.036 387.424C153.161 387.936 152.148 388.192 150.996 388.192C149.854 388.192 148.846 387.936 147.972 387.424C147.108 386.901 146.43 386.181 145.94 385.264C145.46 384.347 145.22 383.285 145.22 382.08C145.22 380.875 145.465 379.813 145.956 378.896C146.446 377.968 147.124 377.248 147.988 376.736C148.862 376.213 149.87 375.952 151.012 375.952C152.164 375.952 153.172 376.213 154.036 376.736C154.91 377.248 155.593 377.963 156.084 378.88C156.574 379.797 156.82 380.859 156.82 382.064ZM154.084 382.064C154.084 381.307 153.961 380.661 153.716 380.128C153.47 379.584 153.118 379.168 152.66 378.88C152.212 378.592 151.668 378.448 151.028 378.448C150.388 378.448 149.838 378.592 149.38 378.88C148.921 379.168 148.569 379.584 148.324 380.128C148.078 380.661 147.956 381.307 147.956 382.064C147.956 382.821 148.078 383.472 148.324 384.016C148.569 384.56 148.921 384.976 149.38 385.264C149.838 385.552 150.388 385.696 151.028 385.696C151.668 385.696 152.212 385.552 152.66 385.264C153.118 384.965 153.47 384.544 153.716 384C153.961 383.456 154.084 382.811 154.084 382.064ZM160.146 383.552V376.16H162.738V383.376C162.738 384.123 162.935 384.693 163.33 385.088C163.724 385.483 164.284 385.68 165.01 385.68C165.746 385.68 166.311 385.477 166.706 385.072C167.111 384.667 167.314 384.101 167.314 383.376V376.16H169.906V383.552C169.906 384.491 169.703 385.307 169.298 386C168.903 386.693 168.338 387.232 167.602 387.616C166.866 388 166.002 388.192 165.01 388.192C164.028 388.192 163.17 388.005 162.434 387.632C161.708 387.248 161.143 386.709 160.738 386.016C160.343 385.312 160.146 384.491 160.146 383.552ZM177.248 388L172.816 376.16H175.584L177.824 382.144C177.963 382.507 178.091 382.885 178.208 383.28C178.326 383.675 178.448 384.128 178.576 384.64C178.726 384.075 178.859 383.605 178.976 383.232C179.104 382.859 179.232 382.496 179.36 382.144L181.568 376.16H184.272L179.92 388H177.248ZM197.573 382.064C197.573 383.269 197.328 384.336 196.837 385.264C196.346 386.181 195.664 386.901 194.789 387.424C193.914 387.936 192.901 388.192 191.749 388.192C190.608 388.192 189.6 387.936 188.725 387.424C187.861 386.901 187.184 386.181 186.693 385.264C186.213 384.347 185.973 383.285 185.973 382.08C185.973 380.875 186.218 379.813 186.709 378.896C187.2 377.968 187.877 377.248 188.741 376.736C189.616 376.213 190.624 375.952 191.765 375.952C192.917 375.952 193.925 376.213 194.789 376.736C195.664 377.248 196.346 377.963 196.837 378.88C197.328 379.797 197.573 380.859 197.573 382.064ZM194.837 382.064C194.837 381.307 194.714 380.661 194.469 380.128C194.224 379.584 193.872 379.168 193.413 378.88C192.965 378.592 192.421 378.448 191.781 378.448C191.141 378.448 190.592 378.592 190.133 378.88C189.674 379.168 189.322 379.584 189.077 380.128C188.832 380.661 188.709 381.307 188.709 382.064C188.709 382.821 188.832 383.472 189.077 384.016C189.322 384.56 189.674 384.976 190.133 385.264C190.592 385.552 191.141 385.696 191.781 385.696C192.421 385.696 192.965 385.552 193.413 385.264C193.872 384.965 194.224 384.544 194.469 384C194.714 383.456 194.837 382.811 194.837 382.064ZM203.571 376.16V388H200.979V376.16H203.571ZM210.233 388H207.641V376.16H212.217C213.657 376.16 214.767 376.496 215.545 377.168C216.335 377.829 216.729 378.773 216.729 380C216.729 380.768 216.564 381.424 216.233 381.968C215.913 382.512 215.423 382.955 214.761 383.296L216.841 388H214.009L212.233 383.856H210.233V388ZM210.233 378.464V381.584H212.201C212.767 381.584 213.204 381.445 213.513 381.168C213.833 380.891 213.993 380.501 213.993 380C213.993 379.499 213.839 379.12 213.529 378.864C213.231 378.597 212.793 378.464 212.217 378.464H210.233Z" fill="#415366"/>
<path d="M95.816 417H94.346V406.155H98.441C99.601 406.155 100.506 406.445 101.156 407.025C101.816 407.595 102.146 408.39 102.146 409.41C102.146 410.16 101.961 410.795 101.591 411.315C101.231 411.835 100.716 412.205 100.046 412.425L102.251 417H100.616L98.591 412.71H95.816V417ZM95.816 407.475V411.405H98.456C99.136 411.405 99.661 411.23 100.031 410.88C100.411 410.53 100.601 410.045 100.601 409.425C100.601 408.795 100.406 408.315 100.016 407.985C99.636 407.645 99.111 407.475 98.441 407.475H95.816ZM106.558 417.18C105.848 417.18 105.218 417.02 104.668 416.7C104.118 416.37 103.688 415.92 103.378 415.35C103.068 414.77 102.913 414.1 102.913 413.34C102.913 412.57 103.063 411.895 103.363 411.315C103.673 410.735 104.093 410.28 104.623 409.95C105.163 409.62 105.788 409.455 106.498 409.455C107.198 409.455 107.803 409.605 108.313 409.905C108.833 410.205 109.233 410.625 109.513 411.165C109.803 411.705 109.948 412.34 109.948 413.07V413.595L103.663 413.61L103.693 412.665H108.538C108.538 412.055 108.353 411.565 107.983 411.195C107.613 410.825 107.118 410.64 106.498 410.64C106.028 410.64 105.623 410.745 105.283 410.955C104.953 411.155 104.698 411.455 104.518 411.855C104.348 412.245 104.263 412.715 104.263 413.265C104.263 414.145 104.463 414.825 104.863 415.305C105.263 415.775 105.838 416.01 106.588 416.01C107.138 416.01 107.588 415.9 107.938 415.68C108.288 415.46 108.523 415.14 108.643 414.72H109.963C109.783 415.5 109.398 416.105 108.808 416.535C108.218 416.965 107.468 417.18 106.558 417.18ZM108.373 406.815L107.083 408.81H105.988L106.993 406.815H108.373ZM116.593 409.665H117.988V417H116.728L116.578 415.89C116.368 416.27 116.038 416.58 115.588 416.82C115.138 417.06 114.643 417.18 114.103 417.18C113.253 417.18 112.593 416.915 112.123 416.385C111.663 415.845 111.433 415.125 111.433 414.225V409.665H112.843V413.76C112.843 414.54 112.998 415.1 113.308 415.44C113.628 415.77 114.058 415.935 114.598 415.935C115.248 415.935 115.743 415.735 116.083 415.335C116.423 414.925 116.593 414.325 116.593 413.535V409.665ZM121.444 417H120.034V409.665H121.309L121.459 410.79C121.689 410.37 122.019 410.045 122.449 409.815C122.889 409.575 123.369 409.455 123.889 409.455C124.849 409.455 125.559 409.73 126.019 410.28C126.479 410.83 126.709 411.575 126.709 412.515V417H125.299V412.83C125.299 412.09 125.139 411.56 124.819 411.24C124.499 410.91 124.069 410.745 123.529 410.745C122.869 410.745 122.354 410.96 121.984 411.39C121.624 411.82 121.444 412.395 121.444 413.115V417ZM128.662 417V409.665H130.072V417H128.662ZM129.352 407.925C129.102 407.925 128.882 407.835 128.692 407.655C128.512 407.465 128.422 407.245 128.422 406.995C128.422 406.735 128.512 406.515 128.692 406.335C128.882 406.155 129.102 406.065 129.352 406.065C129.612 406.065 129.832 406.155 130.012 406.335C130.192 406.515 130.282 406.735 130.282 406.995C130.282 407.245 130.192 407.465 130.012 407.655C129.832 407.835 129.612 407.925 129.352 407.925ZM131.339 409.665H135.629V410.85H131.339V409.665ZM134.189 417H132.779V407.37H134.189V417ZM140.216 409.665H144.506V410.85H140.216V409.665ZM143.066 417H141.656V407.37H143.066V417ZM148.863 417.18C148.153 417.18 147.523 417.02 146.973 416.7C146.423 416.37 145.993 415.92 145.683 415.35C145.373 414.77 145.218 414.1 145.218 413.34C145.218 412.57 145.368 411.895 145.668 411.315C145.978 410.735 146.398 410.28 146.928 409.95C147.468 409.62 148.093 409.455 148.803 409.455C149.503 409.455 150.108 409.605 150.618 409.905C151.138 410.205 151.538 410.625 151.818 411.165C152.108 411.705 152.253 412.34 152.253 413.07V413.595L145.968 413.61L145.998 412.665H150.843C150.843 412.055 150.658 411.565 150.288 411.195C149.918 410.825 149.423 410.64 148.803 410.64C148.333 410.64 147.928 410.745 147.588 410.955C147.258 411.155 147.003 411.455 146.823 411.855C146.653 412.245 146.568 412.715 146.568 413.265C146.568 414.145 146.768 414.825 147.168 415.305C147.568 415.775 148.143 416.01 148.893 416.01C149.443 416.01 149.893 415.9 150.243 415.68C150.593 415.46 150.828 415.14 150.948 414.72H152.268C152.088 415.5 151.703 416.105 151.113 416.535C150.523 416.965 149.773 417.18 148.863 417.18ZM155.238 417H153.828V409.665H155.088L155.283 411.015L155.103 410.895C155.253 410.485 155.528 410.145 155.928 409.875C156.338 409.595 156.833 409.455 157.413 409.455C158.063 409.455 158.603 409.63 159.033 409.98C159.463 410.33 159.743 410.795 159.873 411.375H159.618C159.718 410.795 159.993 410.33 160.443 409.98C160.893 409.63 161.448 409.455 162.108 409.455C162.948 409.455 163.608 409.7 164.088 410.19C164.568 410.68 164.808 411.35 164.808 412.2V417H163.428V412.545C163.428 411.965 163.278 411.52 162.978 411.21C162.688 410.89 162.293 410.73 161.793 410.73C161.443 410.73 161.133 410.81 160.863 410.97C160.603 411.12 160.398 411.34 160.248 411.63C160.098 411.92 160.023 412.26 160.023 412.65V417H158.628V412.53C158.628 411.95 158.483 411.51 158.193 411.21C157.903 410.9 157.508 410.745 157.008 410.745C156.658 410.745 156.348 410.825 156.078 410.985C155.818 411.135 155.613 411.355 155.463 411.645C155.313 411.925 155.238 412.26 155.238 412.65V417ZM166.762 420.285V409.665H168.037L168.142 410.985C168.382 410.475 168.737 410.095 169.207 409.845C169.687 409.585 170.217 409.455 170.797 409.455C171.497 409.455 172.102 409.62 172.612 409.95C173.122 410.27 173.512 410.72 173.782 411.3C174.062 411.87 174.202 412.53 174.202 413.28C174.202 414.03 174.067 414.7 173.797 415.29C173.537 415.88 173.152 416.345 172.642 416.685C172.142 417.025 171.527 417.195 170.797 417.195C170.207 417.195 169.682 417.075 169.222 416.835C168.762 416.595 168.412 416.25 168.172 415.8V420.285H166.762ZM168.187 413.34C168.187 413.83 168.277 414.275 168.457 414.675C168.647 415.065 168.912 415.37 169.252 415.59C169.602 415.81 170.017 415.92 170.497 415.92C170.977 415.92 171.387 415.81 171.727 415.59C172.067 415.36 172.327 415.05 172.507 414.66C172.697 414.27 172.792 413.83 172.792 413.34C172.792 412.83 172.697 412.38 172.507 411.99C172.327 411.6 172.067 411.295 171.727 411.075C171.387 410.855 170.977 410.745 170.497 410.745C170.017 410.745 169.602 410.855 169.252 411.075C168.912 411.295 168.647 411.6 168.457 411.99C168.277 412.38 168.187 412.83 168.187 413.34ZM177.196 417H175.786V405.96H177.196V417ZM181.417 417.18C180.637 417.18 180.022 416.975 179.572 416.565C179.132 416.155 178.912 415.62 178.912 414.96C178.912 414.29 179.152 413.755 179.632 413.355C180.112 412.945 180.782 412.705 181.642 412.635L183.952 412.455V412.245C183.952 411.835 183.877 411.51 183.727 411.27C183.577 411.02 183.372 410.845 183.112 410.745C182.852 410.635 182.557 410.58 182.227 410.58C181.637 410.58 181.177 410.705 180.847 410.955C180.527 411.195 180.367 411.54 180.367 411.99H179.137C179.137 411.48 179.267 411.035 179.527 410.655C179.787 410.275 180.152 409.98 180.622 409.77C181.102 409.56 181.657 409.455 182.287 409.455C182.897 409.455 183.427 409.565 183.877 409.785C184.337 409.995 184.692 410.32 184.942 410.76C185.202 411.19 185.332 411.735 185.332 412.395V417H184.132L183.982 415.815C183.792 416.235 183.462 416.57 182.992 416.82C182.532 417.06 182.007 417.18 181.417 417.18ZM181.822 416.085C182.492 416.085 183.017 415.885 183.397 415.485C183.777 415.075 183.967 414.525 183.967 413.835V413.445L182.092 413.595C181.472 413.655 181.022 413.8 180.742 414.03C180.472 414.26 180.337 414.555 180.337 414.915C180.337 415.305 180.467 415.6 180.727 415.8C180.997 415.99 181.362 416.085 181.822 416.085ZM186.387 409.665H190.677V410.85H186.387V409.665ZM189.237 417H187.827V407.37H189.237V417ZM195.035 417.18C194.325 417.18 193.695 417.02 193.145 416.7C192.595 416.37 192.165 415.92 191.855 415.35C191.545 414.77 191.39 414.1 191.39 413.34C191.39 412.57 191.54 411.895 191.84 411.315C192.15 410.735 192.57 410.28 193.1 409.95C193.64 409.62 194.265 409.455 194.975 409.455C195.675 409.455 196.28 409.605 196.79 409.905C197.31 410.205 197.71 410.625 197.99 411.165C198.28 411.705 198.425 412.34 198.425 413.07V413.595L192.14 413.61L192.17 412.665H197.015C197.015 412.055 196.83 411.565 196.46 411.195C196.09 410.825 195.595 410.64 194.975 410.64C194.505 410.64 194.1 410.745 193.76 410.955C193.43 411.155 193.175 411.455 192.995 411.855C192.825 412.245 192.74 412.715 192.74 413.265C192.74 414.145 192.94 414.825 193.34 415.305C193.74 415.775 194.315 416.01 195.065 416.01C195.615 416.01 196.065 415.9 196.415 415.68C196.765 415.46 197 415.14 197.12 414.72H198.44C198.26 415.5 197.875 416.105 197.285 416.535C196.695 416.965 195.945 417.18 195.035 417.18ZM200.835 416.865L200.955 416.835C200.895 416.895 200.82 416.94 200.73 416.97C200.65 417 200.55 417.015 200.43 417.015C200.19 417.015 199.975 416.935 199.785 416.775C199.605 416.605 199.515 416.38 199.515 416.1C199.515 415.8 199.605 415.555 199.785 415.365C199.975 415.165 200.22 415.065 200.52 415.065C200.84 415.065 201.11 415.185 201.33 415.425C201.55 415.665 201.66 415.995 201.66 416.415C201.66 416.775 201.575 417.105 201.405 417.405C201.245 417.715 201.025 417.965 200.745 418.155C200.465 418.355 200.145 418.48 199.785 418.53V417.9C200.085 417.84 200.335 417.715 200.535 417.525C200.735 417.345 200.835 417.125 200.835 416.865ZM209.232 417H207.822V405.96H209.232V417ZM210.828 413.325C210.828 412.575 210.993 411.91 211.323 411.33C211.653 410.75 212.103 410.295 212.673 409.965C213.253 409.635 213.913 409.47 214.653 409.47C215.393 409.47 216.048 409.635 216.618 409.965C217.188 410.295 217.638 410.75 217.968 411.33C218.298 411.91 218.463 412.575 218.463 413.325C218.463 414.075 218.298 414.74 217.968 415.32C217.638 415.9 217.188 416.355 216.618 416.685C216.048 417.015 215.393 417.18 214.653 417.18C213.913 417.18 213.253 417.015 212.673 416.685C212.103 416.355 211.653 415.9 211.323 415.32C210.993 414.74 210.828 414.075 210.828 413.325ZM212.253 413.325C212.253 413.835 212.353 414.285 212.553 414.675C212.763 415.065 213.048 415.37 213.408 415.59C213.768 415.81 214.183 415.92 214.653 415.92C215.123 415.92 215.538 415.81 215.898 415.59C216.258 415.37 216.538 415.065 216.738 414.675C216.948 414.285 217.053 413.835 217.053 413.325C217.053 412.805 216.948 412.355 216.738 411.975C216.538 411.585 216.258 411.28 215.898 411.06C215.538 410.84 215.123 410.73 214.653 410.73C214.183 410.73 213.768 410.84 213.408 411.06C213.048 411.28 212.763 411.585 212.553 411.975C212.353 412.355 212.253 412.805 212.253 413.325ZM219.559 413.145C219.559 412.455 219.699 411.835 219.979 411.285C220.259 410.725 220.659 410.28 221.179 409.95C221.699 409.62 222.314 409.455 223.024 409.455C223.684 409.455 224.249 409.615 224.719 409.935C225.189 410.245 225.524 410.68 225.724 411.24L225.544 411.435L225.694 409.665H226.954V416.7C226.954 417.47 226.804 418.135 226.504 418.695C226.204 419.265 225.779 419.705 225.229 420.015C224.679 420.325 224.029 420.48 223.279 420.48C222.279 420.48 221.459 420.215 220.819 419.685C220.179 419.155 219.789 418.425 219.649 417.495H221.059C221.149 418.035 221.389 418.455 221.779 418.755C222.169 419.055 222.669 419.205 223.279 419.205C223.969 419.205 224.519 418.995 224.929 418.575C225.349 418.165 225.559 417.61 225.559 416.91V414.84L225.739 415.035C225.549 415.585 225.204 416.02 224.704 416.34C224.204 416.65 223.624 416.805 222.964 416.805C222.264 416.805 221.659 416.645 221.149 416.325C220.639 415.995 220.244 415.555 219.964 415.005C219.694 414.455 219.559 413.835 219.559 413.145ZM220.969 413.115C220.969 413.575 221.059 413.99 221.239 414.36C221.429 414.73 221.689 415.025 222.019 415.245C222.359 415.465 222.754 415.575 223.204 415.575C223.684 415.575 224.094 415.47 224.434 415.26C224.774 415.05 225.034 414.76 225.214 414.39C225.404 414.02 225.499 413.595 225.499 413.115C225.499 412.635 225.409 412.215 225.229 411.855C225.049 411.495 224.789 411.21 224.449 411C224.109 410.79 223.699 410.685 223.219 410.685C222.749 410.685 222.344 410.795 222.004 411.015C221.674 411.235 221.419 411.53 221.239 411.9C221.059 412.26 220.969 412.665 220.969 413.115ZM228.989 417V409.665H230.399V417H228.989ZM229.679 407.925C229.429 407.925 229.209 407.835 229.019 407.655C228.839 407.465 228.749 407.245 228.749 406.995C228.749 406.735 228.839 406.515 229.019 406.335C229.209 406.155 229.429 406.065 229.679 406.065C229.939 406.065 230.159 406.155 230.339 406.335C230.519 406.515 230.609 406.735 230.609 406.995C230.609 407.245 230.519 407.465 230.339 407.655C230.159 407.835 229.939 407.925 229.679 407.925ZM231.966 413.28C231.966 412.53 232.106 411.87 232.386 411.3C232.666 410.72 233.061 410.27 233.571 409.95C234.081 409.62 234.686 409.455 235.386 409.455C235.966 409.455 236.491 409.585 236.961 409.845C237.431 410.095 237.786 410.475 238.026 410.985L238.146 409.665H239.406V420.285H238.011V415.8C237.761 416.25 237.406 416.595 236.946 416.835C236.486 417.075 235.961 417.195 235.371 417.195C234.651 417.195 234.036 417.025 233.526 416.685C233.016 416.345 232.626 415.88 232.356 415.29C232.096 414.7 231.966 414.03 231.966 413.28ZM233.391 413.34C233.391 413.83 233.481 414.27 233.661 414.66C233.841 415.05 234.101 415.36 234.441 415.59C234.781 415.81 235.191 415.92 235.671 415.92C236.151 415.92 236.561 415.81 236.901 415.59C237.251 415.37 237.521 415.065 237.711 414.675C237.901 414.275 237.996 413.83 237.996 413.34C237.996 412.83 237.901 412.38 237.711 411.99C237.521 411.6 237.251 411.295 236.901 411.075C236.561 410.855 236.151 410.745 235.671 410.745C235.191 410.745 234.781 410.855 234.441 411.075C234.101 411.295 233.841 411.6 233.661 411.99C233.481 412.38 233.391 412.83 233.391 413.34ZM246.51 409.665H247.905V417H246.645L246.495 415.89C246.285 416.27 245.955 416.58 245.505 416.82C245.055 417.06 244.56 417.18 244.02 417.18C243.17 417.18 242.51 416.915 242.04 416.385C241.58 415.845 241.35 415.125 241.35 414.225V409.665H242.76V413.76C242.76 414.54 242.915 415.1 243.225 415.44C243.545 415.77 243.975 415.935 244.515 415.935C245.165 415.935 245.66 415.735 246 415.335C246.34 414.925 246.51 414.325 246.51 413.535V409.665ZM252.969 417.18C252.259 417.18 251.629 417.02 251.079 416.7C250.529 416.37 250.099 415.92 249.789 415.35C249.479 414.77 249.324 414.1 249.324 413.34C249.324 412.57 249.474 411.895 249.774 411.315C250.084 410.735 250.504 410.28 251.034 409.95C251.574 409.62 252.199 409.455 252.909 409.455C253.609 409.455 254.214 409.605 254.724 409.905C255.244 410.205 255.644 410.625 255.924 411.165C256.214 411.705 256.359 412.34 256.359 413.07V413.595L250.074 413.61L250.104 412.665H254.949C254.949 412.055 254.764 411.565 254.394 411.195C254.024 410.825 253.529 410.64 252.909 410.64C252.439 410.64 252.034 410.745 251.694 410.955C251.364 411.155 251.109 411.455 250.929 411.855C250.759 412.245 250.674 412.715 250.674 413.265C250.674 414.145 250.874 414.825 251.274 415.305C251.674 415.775 252.249 416.01 252.999 416.01C253.549 416.01 253.999 415.9 254.349 415.68C254.699 415.46 254.934 415.14 255.054 414.72H256.374C256.194 415.5 255.809 416.105 255.219 416.535C254.629 416.965 253.879 417.18 252.969 417.18ZM97.2636 436.18C96.5536 436.18 95.9236 436.02 95.3736 435.7C94.8236 435.37 94.3936 434.92 94.0836 434.35C93.7736 433.77 93.6186 433.1 93.6186 432.34C93.6186 431.57 93.7686 430.895 94.0686 430.315C94.3786 429.735 94.7986 429.28 95.3286 428.95C95.8686 428.62 96.4936 428.455 97.2036 428.455C97.9036 428.455 98.5086 428.605 99.0186 428.905C99.5386 429.205 99.9386 429.625 100.219 430.165C100.509 430.705 100.654 431.34 100.654 432.07V432.595L94.3686 432.61L94.3986 431.665H99.2436C99.2436 431.055 99.0586 430.565 98.6886 430.195C98.3186 429.825 97.8236 429.64 97.2036 429.64C96.7336 429.64 96.3286 429.745 95.9886 429.955C95.6586 430.155 95.4036 430.455 95.2236 430.855C95.0536 431.245 94.9686 431.715 94.9686 432.265C94.9686 433.145 95.1686 433.825 95.5686 434.305C95.9686 434.775 96.5436 435.01 97.2936 435.01C97.8436 435.01 98.2936 434.9 98.6436 434.68C98.9936 434.46 99.2286 434.14 99.3486 433.72H100.669C100.489 434.5 100.104 435.105 99.5136 435.535C98.9236 435.965 98.1736 436.18 97.2636 436.18ZM101.375 428.665H105.665V429.85H101.375V428.665ZM104.225 436H102.815V426.37H104.225V436ZM110.432 433.87H111.782C111.782 434.24 111.917 434.535 112.187 434.755C112.457 434.965 112.822 435.07 113.282 435.07C113.782 435.07 114.167 434.975 114.437 434.785C114.707 434.585 114.842 434.32 114.842 433.99C114.842 433.75 114.767 433.55 114.617 433.39C114.477 433.23 114.217 433.1 113.837 433L112.547 432.7C111.897 432.54 111.412 432.295 111.092 431.965C110.782 431.635 110.627 431.2 110.627 430.66C110.627 430.21 110.742 429.82 110.972 429.49C111.212 429.16 111.537 428.905 111.947 428.725C112.367 428.545 112.847 428.455 113.387 428.455C113.927 428.455 114.392 428.55 114.782 428.74C115.182 428.93 115.492 429.195 115.712 429.535C115.942 429.875 116.062 430.28 116.072 430.75H114.722C114.712 430.37 114.587 430.075 114.347 429.865C114.107 429.655 113.772 429.55 113.342 429.55C112.902 429.55 112.562 429.645 112.322 429.835C112.082 430.025 111.962 430.285 111.962 430.615C111.962 431.105 112.322 431.44 113.042 431.62L114.332 431.935C114.952 432.075 115.417 432.305 115.727 432.625C116.037 432.935 116.192 433.36 116.192 433.9C116.192 434.36 116.067 434.765 115.817 435.115C115.567 435.455 115.222 435.72 114.782 435.91C114.352 436.09 113.842 436.18 113.252 436.18C112.392 436.18 111.707 435.97 111.197 435.55C110.687 435.13 110.432 434.57 110.432 433.87ZM116.976 428.665H121.266V429.85H116.976V428.665ZM119.826 436H118.416V426.37H119.826V436ZM123.116 428.665L125.696 435.805L124.826 437.005L121.631 428.665H123.116ZM121.826 439.285V438.13H122.771C123.001 438.13 123.211 438.105 123.401 438.055C123.591 438.015 123.766 437.92 123.926 437.77C124.086 437.63 124.221 437.405 124.331 437.095L127.421 428.665H128.876L125.411 437.65C125.161 438.28 124.846 438.735 124.466 439.015C124.086 439.295 123.616 439.435 123.056 439.435C122.826 439.435 122.611 439.42 122.411 439.39C122.211 439.37 122.016 439.335 121.826 439.285ZM131.442 436H130.032V424.96H131.442V436ZM136.683 436.18C135.973 436.18 135.343 436.02 134.793 435.7C134.243 435.37 133.813 434.92 133.503 434.35C133.193 433.77 133.038 433.1 133.038 432.34C133.038 431.57 133.188 430.895 133.488 430.315C133.798 429.735 134.218 429.28 134.748 428.95C135.288 428.62 135.913 428.455 136.623 428.455C137.323 428.455 137.928 428.605 138.438 428.905C138.958 429.205 139.358 429.625 139.638 430.165C139.928 430.705 140.073 431.34 140.073 432.07V432.595L133.788 432.61L133.818 431.665H138.663C138.663 431.055 138.478 430.565 138.108 430.195C137.738 429.825 137.243 429.64 136.623 429.64C136.153 429.64 135.748 429.745 135.408 429.955C135.078 430.155 134.823 430.455 134.643 430.855C134.473 431.245 134.388 431.715 134.388 432.265C134.388 433.145 134.588 433.825 134.988 434.305C135.388 434.775 135.963 435.01 136.713 435.01C137.263 435.01 137.713 434.9 138.063 434.68C138.413 434.46 138.648 434.14 138.768 433.72H140.088C139.908 434.5 139.523 435.105 138.933 435.535C138.343 435.965 137.593 436.18 136.683 436.18ZM148.689 436.18C147.979 436.18 147.369 436.02 146.859 435.7C146.349 435.37 145.954 434.915 145.674 434.335C145.404 433.755 145.269 433.095 145.269 432.355C145.269 431.605 145.409 430.94 145.689 430.36C145.969 429.77 146.369 429.305 146.889 428.965C147.409 428.625 148.029 428.455 148.749 428.455C149.319 428.455 149.824 428.575 150.264 428.815C150.714 429.045 151.064 429.39 151.314 429.85V424.96H152.709V436H151.449L151.329 434.665C151.089 435.155 150.734 435.53 150.264 435.79C149.804 436.05 149.279 436.18 148.689 436.18ZM148.974 434.905C149.454 434.905 149.864 434.795 150.204 434.575C150.554 434.355 150.824 434.05 151.014 433.66C151.204 433.27 151.299 432.82 151.299 432.31C151.299 431.8 151.204 431.355 151.014 430.975C150.824 430.585 150.554 430.28 150.204 430.06C149.864 429.84 149.454 429.73 148.974 429.73C148.494 429.73 148.084 429.845 147.744 430.075C147.404 430.295 147.144 430.6 146.964 430.99C146.784 431.37 146.694 431.81 146.694 432.31C146.694 432.82 146.784 433.27 146.964 433.66C147.144 434.05 147.404 434.355 147.744 434.575C148.084 434.795 148.494 434.905 148.974 434.905ZM156.888 436.18C156.108 436.18 155.493 435.975 155.043 435.565C154.603 435.155 154.383 434.62 154.383 433.96C154.383 433.29 154.623 432.755 155.103 432.355C155.583 431.945 156.253 431.705 157.113 431.635L159.423 431.455V431.245C159.423 430.835 159.348 430.51 159.198 430.27C159.048 430.02 158.843 429.845 158.583 429.745C158.323 429.635 158.028 429.58 157.698 429.58C157.108 429.58 156.648 429.705 156.318 429.955C155.998 430.195 155.838 430.54 155.838 430.99H154.608C154.608 430.48 154.738 430.035 154.998 429.655C155.258 429.275 155.623 428.98 156.093 428.77C156.573 428.56 157.128 428.455 157.758 428.455C158.368 428.455 158.898 428.565 159.348 428.785C159.808 428.995 160.163 429.32 160.413 429.76C160.673 430.19 160.803 430.735 160.803 431.395V436H159.603L159.453 434.815C159.263 435.235 158.933 435.57 158.463 435.82C158.003 436.06 157.478 436.18 156.888 436.18ZM157.293 435.085C157.963 435.085 158.488 434.885 158.868 434.485C159.248 434.075 159.438 433.525 159.438 432.835V432.445L157.563 432.595C156.943 432.655 156.493 432.8 156.213 433.03C155.943 433.26 155.808 433.555 155.808 433.915C155.808 434.305 155.938 434.6 156.198 434.8C156.468 434.99 156.833 435.085 157.293 435.085ZM164.166 436H162.756V428.665H164.031L164.181 429.79C164.411 429.37 164.741 429.045 165.171 428.815C165.611 428.575 166.091 428.455 166.611 428.455C167.571 428.455 168.281 428.73 168.741 429.28C169.201 429.83 169.431 430.575 169.431 431.515V436H168.021V431.83C168.021 431.09 167.861 430.56 167.541 430.24C167.221 429.91 166.791 429.745 166.251 429.745C165.591 429.745 165.076 429.96 164.706 430.39C164.346 430.82 164.166 431.395 164.166 432.115V436ZM170.696 433.87H172.046C172.046 434.24 172.181 434.535 172.451 434.755C172.721 434.965 173.086 435.07 173.546 435.07C174.046 435.07 174.431 434.975 174.701 434.785C174.971 434.585 175.106 434.32 175.106 433.99C175.106 433.75 175.031 433.55 174.881 433.39C174.741 433.23 174.481 433.1 174.101 433L172.811 432.7C172.161 432.54 171.676 432.295 171.356 431.965C171.046 431.635 170.891 431.2 170.891 430.66C170.891 430.21 171.006 429.82 171.236 429.49C171.476 429.16 171.801 428.905 172.211 428.725C172.631 428.545 173.111 428.455 173.651 428.455C174.191 428.455 174.656 428.55 175.046 428.74C175.446 428.93 175.756 429.195 175.976 429.535C176.206 429.875 176.326 430.28 176.336 430.75H174.986C174.976 430.37 174.851 430.075 174.611 429.865C174.371 429.655 174.036 429.55 173.606 429.55C173.166 429.55 172.826 429.645 172.586 429.835C172.346 430.025 172.226 430.285 172.226 430.615C172.226 431.105 172.586 431.44 173.306 431.62L174.596 431.935C175.216 432.075 175.681 432.305 175.991 432.625C176.301 432.935 176.456 433.36 176.456 433.9C176.456 434.36 176.331 434.765 176.081 435.115C175.831 435.455 175.486 435.72 175.046 435.91C174.616 436.09 174.106 436.18 173.516 436.18C172.656 436.18 171.971 435.97 171.461 435.55C170.951 435.13 170.696 434.57 170.696 433.87ZM187.191 428.665H188.586V436H187.326L187.176 434.89C186.966 435.27 186.636 435.58 186.186 435.82C185.736 436.06 185.241 436.18 184.701 436.18C183.851 436.18 183.191 435.915 182.721 435.385C182.261 434.845 182.031 434.125 182.031 433.225V428.665H183.441V432.76C183.441 433.54 183.596 434.1 183.906 434.44C184.226 434.77 184.656 434.935 185.196 434.935C185.846 434.935 186.341 434.735 186.681 434.335C187.021 433.925 187.191 433.325 187.191 432.535V428.665ZM192.042 436H190.632V428.665H191.907L192.057 429.79C192.287 429.37 192.617 429.045 193.047 428.815C193.487 428.575 193.967 428.455 194.487 428.455C195.447 428.455 196.157 428.73 196.617 429.28C197.077 429.83 197.307 430.575 197.307 431.515V436H195.897V431.83C195.897 431.09 195.737 430.56 195.417 430.24C195.097 429.91 194.667 429.745 194.127 429.745C193.467 429.745 192.952 429.96 192.582 430.39C192.222 430.82 192.042 431.395 192.042 432.115V436ZM202.761 433.87H204.111C204.111 434.24 204.246 434.535 204.516 434.755C204.786 434.965 205.151 435.07 205.611 435.07C206.111 435.07 206.496 434.975 206.766 434.785C207.036 434.585 207.171 434.32 207.171 433.99C207.171 433.75 207.096 433.55 206.946 433.39C206.806 433.23 206.546 433.1 206.166 433L204.876 432.7C204.226 432.54 203.741 432.295 203.421 431.965C203.111 431.635 202.956 431.2 202.956 430.66C202.956 430.21 203.071 429.82 203.301 429.49C203.541 429.16 203.866 428.905 204.276 428.725C204.696 428.545 205.176 428.455 205.716 428.455C206.256 428.455 206.721 428.55 207.111 428.74C207.511 428.93 207.821 429.195 208.041 429.535C208.271 429.875 208.391 430.28 208.401 430.75H207.051C207.041 430.37 206.916 430.075 206.676 429.865C206.436 429.655 206.101 429.55 205.671 429.55C205.231 429.55 204.891 429.645 204.651 429.835C204.411 430.025 204.291 430.285 204.291 430.615C204.291 431.105 204.651 431.44 205.371 431.62L206.661 431.935C207.281 432.075 207.746 432.305 208.056 432.625C208.366 432.935 208.521 433.36 208.521 433.9C208.521 434.36 208.396 434.765 208.146 435.115C207.896 435.455 207.551 435.72 207.111 435.91C206.681 436.09 206.171 436.18 205.581 436.18C204.721 436.18 204.036 435.97 203.526 435.55C203.016 435.13 202.761 434.57 202.761 433.87ZM210.523 428.665L213.103 435.805L212.233 437.005L209.038 428.665H210.523ZM209.233 439.285V438.13H210.178C210.408 438.13 210.618 438.105 210.808 438.055C210.998 438.015 211.173 437.92 211.333 437.77C211.493 437.63 211.628 437.405 211.738 437.095L214.828 428.665H216.283L212.818 437.65C212.568 438.28 212.253 438.735 211.873 439.015C211.493 439.295 211.023 439.435 210.463 439.435C210.233 439.435 210.018 439.42 209.818 439.39C209.618 439.37 209.423 439.335 209.233 439.285ZM216.721 433.87H218.071C218.071 434.24 218.206 434.535 218.476 434.755C218.746 434.965 219.111 435.07 219.571 435.07C220.071 435.07 220.456 434.975 220.726 434.785C220.996 434.585 221.131 434.32 221.131 433.99C221.131 433.75 221.056 433.55 220.906 433.39C220.766 433.23 220.506 433.1 220.126 433L218.836 432.7C218.186 432.54 217.701 432.295 217.381 431.965C217.071 431.635 216.916 431.2 216.916 430.66C216.916 430.21 217.031 429.82 217.261 429.49C217.501 429.16 217.826 428.905 218.236 428.725C218.656 428.545 219.136 428.455 219.676 428.455C220.216 428.455 220.681 428.55 221.071 428.74C221.471 428.93 221.781 429.195 222.001 429.535C222.231 429.875 222.351 430.28 222.361 430.75H221.011C221.001 430.37 220.876 430.075 220.636 429.865C220.396 429.655 220.061 429.55 219.631 429.55C219.191 429.55 218.851 429.645 218.611 429.835C218.371 430.025 218.251 430.285 218.251 430.615C218.251 431.105 218.611 431.44 219.331 431.62L220.621 431.935C221.241 432.075 221.706 432.305 222.016 432.625C222.326 432.935 222.481 433.36 222.481 433.9C222.481 434.36 222.356 434.765 222.106 435.115C221.856 435.455 221.511 435.72 221.071 435.91C220.641 436.09 220.131 436.18 219.541 436.18C218.681 436.18 217.996 435.97 217.486 435.55C216.976 435.13 216.721 434.57 216.721 433.87ZM223.265 428.665H227.555V429.85H223.265V428.665ZM226.115 436H224.705V426.37H226.115V436ZM231.912 436.18C231.202 436.18 230.572 436.02 230.022 435.7C229.472 435.37 229.042 434.92 228.732 434.35C228.422 433.77 228.267 433.1 228.267 432.34C228.267 431.57 228.417 430.895 228.717 430.315C229.027 429.735 229.447 429.28 229.977 428.95C230.517 428.62 231.142 428.455 231.852 428.455C232.552 428.455 233.157 428.605 233.667 428.905C234.187 429.205 234.587 429.625 234.867 430.165C235.157 430.705 235.302 431.34 235.302 432.07V432.595L229.017 432.61L229.047 431.665H233.892C233.892 431.055 233.707 430.565 233.337 430.195C232.967 429.825 232.472 429.64 231.852 429.64C231.382 429.64 230.977 429.745 230.637 429.955C230.307 430.155 230.052 430.455 229.872 430.855C229.702 431.245 229.617 431.715 229.617 432.265C229.617 433.145 229.817 433.825 230.217 434.305C230.617 434.775 231.192 435.01 231.942 435.01C232.492 435.01 232.942 434.9 233.292 434.68C233.642 434.46 233.877 434.14 233.997 433.72H235.317C235.137 434.5 234.752 435.105 234.162 435.535C233.572 435.965 232.822 436.18 231.912 436.18ZM232.377 427.81H231.297L230.022 425.815H231.387L232.377 427.81ZM238.287 436H236.877V428.665H238.137L238.332 430.015L238.152 429.895C238.302 429.485 238.577 429.145 238.977 428.875C239.387 428.595 239.882 428.455 240.462 428.455C241.112 428.455 241.652 428.63 242.082 428.98C242.512 429.33 242.792 429.795 242.922 430.375H242.667C242.767 429.795 243.042 429.33 243.492 428.98C243.942 428.63 244.497 428.455 245.157 428.455C245.997 428.455 246.657 428.7 247.137 429.19C247.617 429.68 247.857 430.35 247.857 431.2V436H246.477V431.545C246.477 430.965 246.327 430.52 246.027 430.21C245.737 429.89 245.342 429.73 244.842 429.73C244.492 429.73 244.182 429.81 243.912 429.97C243.652 430.12 243.447 430.34 243.297 430.63C243.147 430.92 243.072 431.26 243.072 431.65V436H241.677V431.53C241.677 430.95 241.532 430.51 241.242 430.21C240.952 429.9 240.557 429.745 240.057 429.745C239.707 429.745 239.397 429.825 239.127 429.985C238.867 430.135 238.662 430.355 238.512 430.645C238.362 430.925 238.287 431.26 238.287 431.65V436ZM252.977 436.18C252.267 436.18 251.637 436.02 251.087 435.7C250.537 435.37 250.107 434.92 249.797 434.35C249.487 433.77 249.332 433.1 249.332 432.34C249.332 431.57 249.482 430.895 249.782 430.315C250.092 429.735 250.512 429.28 251.042 428.95C251.582 428.62 252.207 428.455 252.917 428.455C253.617 428.455 254.222 428.605 254.732 428.905C255.252 429.205 255.652 429.625 255.932 430.165C256.222 430.705 256.367 431.34 256.367 432.07V432.595L250.082 432.61L250.112 431.665H254.957C254.957 431.055 254.772 430.565 254.402 430.195C254.032 429.825 253.537 429.64 252.917 429.64C252.447 429.64 252.042 429.745 251.702 429.955C251.372 430.155 251.117 430.455 250.937 430.855C250.767 431.245 250.682 431.715 250.682 432.265C250.682 433.145 250.882 433.825 251.282 434.305C251.682 434.775 252.257 435.01 253.007 435.01C253.557 435.01 254.007 434.9 254.357 434.68C254.707 434.46 254.942 434.14 255.062 433.72H256.382C256.202 434.5 255.817 435.105 255.227 435.535C254.637 435.965 253.887 436.18 252.977 436.18ZM114.039 447.665H120.309V448.85H114.039V447.665ZM118.224 444.02V445.235C118.134 445.235 118.034 445.235 117.924 445.235C117.824 445.235 117.714 445.235 117.594 445.235C117.164 445.235 116.879 445.345 116.739 445.565C116.599 445.785 116.529 446.095 116.529 446.495V455H115.119V446.495C115.119 445.895 115.219 445.41 115.419 445.04C115.619 444.66 115.884 444.385 116.214 444.215C116.554 444.045 116.934 443.96 117.354 443.96C117.494 443.96 117.639 443.965 117.789 443.975C117.939 443.985 118.084 444 118.224 444.02ZM121.059 455H119.664V443.96H121.059V455ZM128.195 447.665H129.59V455H128.33L128.18 453.89C127.97 454.27 127.64 454.58 127.19 454.82C126.74 455.06 126.245 455.18 125.705 455.18C124.855 455.18 124.195 454.915 123.725 454.385C123.265 453.845 123.035 453.125 123.035 452.225V447.665H124.445V451.76C124.445 452.54 124.6 453.1 124.91 453.44C125.23 453.77 125.66 453.935 126.2 453.935C126.85 453.935 127.345 453.735 127.685 453.335C128.025 452.925 128.195 452.325 128.195 451.535V447.665ZM131.635 455V447.665H133.045V455H131.635ZM132.325 445.925C132.075 445.925 131.855 445.835 131.665 445.655C131.485 445.465 131.395 445.245 131.395 444.995C131.395 444.735 131.485 444.515 131.665 444.335C131.855 444.155 132.075 444.065 132.325 444.065C132.585 444.065 132.805 444.155 132.985 444.335C133.165 444.515 133.255 444.735 133.255 444.995C133.255 445.245 133.165 445.465 132.985 445.655C132.805 445.835 132.585 445.925 132.325 445.925ZM138.032 455.18C137.322 455.18 136.712 455.02 136.202 454.7C135.692 454.37 135.297 453.915 135.017 453.335C134.747 452.755 134.612 452.095 134.612 451.355C134.612 450.605 134.752 449.94 135.032 449.36C135.312 448.77 135.712 448.305 136.232 447.965C136.752 447.625 137.372 447.455 138.092 447.455C138.662 447.455 139.167 447.575 139.607 447.815C140.057 448.045 140.407 448.39 140.657 448.85V443.96H142.052V455H140.792L140.672 453.665C140.432 454.155 140.077 454.53 139.607 454.79C139.147 455.05 138.622 455.18 138.032 455.18ZM138.317 453.905C138.797 453.905 139.207 453.795 139.547 453.575C139.897 453.355 140.167 453.05 140.357 452.66C140.547 452.27 140.642 451.82 140.642 451.31C140.642 450.8 140.547 450.355 140.357 449.975C140.167 449.585 139.897 449.28 139.547 449.06C139.207 448.84 138.797 448.73 138.317 448.73C137.837 448.73 137.427 448.845 137.087 449.075C136.747 449.295 136.487 449.6 136.307 449.99C136.127 450.37 136.037 450.81 136.037 451.31C136.037 451.82 136.127 452.27 136.307 452.66C136.487 453.05 136.747 453.355 137.087 453.575C137.427 453.795 137.837 453.905 138.317 453.905ZM147.251 455.18C146.541 455.18 145.911 455.02 145.361 454.7C144.811 454.37 144.381 453.92 144.071 453.35C143.761 452.77 143.606 452.1 143.606 451.34C143.606 450.57 143.756 449.895 144.056 449.315C144.366 448.735 144.786 448.28 145.316 447.95C145.856 447.62 146.481 447.455 147.191 447.455C147.891 447.455 148.496 447.605 149.006 447.905C149.526 448.205 149.926 448.625 150.206 449.165C150.496 449.705 150.641 450.34 150.641 451.07V451.595L144.356 451.61L144.386 450.665H149.231C149.231 450.055 149.046 449.565 148.676 449.195C148.306 448.825 147.811 448.64 147.191 448.64C146.721 448.64 146.316 448.745 145.976 448.955C145.646 449.155 145.391 449.455 145.211 449.855C145.041 450.245 144.956 450.715 144.956 451.265C144.956 452.145 145.156 452.825 145.556 453.305C145.956 453.775 146.531 454.01 147.281 454.01C147.831 454.01 148.281 453.9 148.631 453.68C148.981 453.46 149.216 453.14 149.336 452.72H150.656C150.476 453.5 150.091 454.105 149.501 454.535C148.911 454.965 148.161 455.18 147.251 455.18ZM159.483 455.18C158.773 455.18 158.143 455.02 157.593 454.7C157.043 454.37 156.613 453.92 156.303 453.35C155.993 452.77 155.838 452.1 155.838 451.34C155.838 450.57 155.988 449.895 156.288 449.315C156.598 448.735 157.018 448.28 157.548 447.95C158.088 447.62 158.713 447.455 159.423 447.455C160.123 447.455 160.728 447.605 161.238 447.905C161.758 448.205 162.158 448.625 162.438 449.165C162.728 449.705 162.873 450.34 162.873 451.07V451.595L156.588 451.61L156.618 450.665H161.463C161.463 450.055 161.278 449.565 160.908 449.195C160.538 448.825 160.043 448.64 159.423 448.64C158.953 448.64 158.548 448.745 158.208 448.955C157.878 449.155 157.623 449.455 157.443 449.855C157.273 450.245 157.188 450.715 157.188 451.265C157.188 452.145 157.388 452.825 157.788 453.305C158.188 453.775 158.763 454.01 159.513 454.01C160.063 454.01 160.513 453.9 160.863 453.68C161.213 453.46 161.448 453.14 161.568 452.72H162.888C162.708 453.5 162.323 454.105 161.733 454.535C161.143 454.965 160.393 455.18 159.483 455.18ZM163.595 447.665H167.885V448.85H163.595V447.665ZM166.445 455H165.035V445.37H166.445V455ZM172.771 451.34C172.771 450.57 172.921 449.895 173.221 449.315C173.531 448.735 173.956 448.28 174.496 447.95C175.036 447.62 175.661 447.455 176.371 447.455C177.291 447.455 178.056 447.7 178.666 448.19C179.276 448.68 179.641 449.33 179.761 450.14H178.351C178.231 449.67 177.996 449.315 177.646 449.075C177.296 448.835 176.886 448.715 176.416 448.715C175.976 448.715 175.586 448.825 175.246 449.045C174.906 449.255 174.641 449.555 174.451 449.945C174.261 450.335 174.166 450.795 174.166 451.325C174.166 451.855 174.256 452.315 174.436 452.705C174.616 453.085 174.871 453.385 175.201 453.605C175.531 453.815 175.916 453.92 176.356 453.92C176.856 453.92 177.286 453.795 177.646 453.545C178.006 453.295 178.246 452.955 178.366 452.525H179.776C179.686 453.055 179.481 453.52 179.161 453.92C178.851 454.31 178.451 454.62 177.961 454.85C177.481 455.07 176.946 455.18 176.356 455.18C175.636 455.18 175.006 455.02 174.466 454.7C173.936 454.38 173.521 453.935 173.221 453.365C172.921 452.785 172.771 452.11 172.771 451.34ZM180.784 451.325C180.784 450.575 180.949 449.91 181.279 449.33C181.609 448.75 182.059 448.295 182.629 447.965C183.209 447.635 183.869 447.47 184.609 447.47C185.349 447.47 186.004 447.635 186.574 447.965C187.144 448.295 187.594 448.75 187.924 449.33C188.254 449.91 188.419 450.575 188.419 451.325C188.419 452.075 188.254 452.74 187.924 453.32C187.594 453.9 187.144 454.355 186.574 454.685C186.004 455.015 185.349 455.18 184.609 455.18C183.869 455.18 183.209 455.015 182.629 454.685C182.059 454.355 181.609 453.9 181.279 453.32C180.949 452.74 180.784 452.075 180.784 451.325ZM182.209 451.325C182.209 451.835 182.309 452.285 182.509 452.675C182.719 453.065 183.004 453.37 183.364 453.59C183.724 453.81 184.139 453.92 184.609 453.92C185.079 453.92 185.494 453.81 185.854 453.59C186.214 453.37 186.494 453.065 186.694 452.675C186.904 452.285 187.009 451.835 187.009 451.325C187.009 450.805 186.904 450.355 186.694 449.975C186.494 449.585 186.214 449.28 185.854 449.06C185.494 448.84 185.079 448.73 184.609 448.73C184.139 448.73 183.724 448.84 183.364 449.06C183.004 449.28 182.719 449.585 182.509 449.975C182.309 450.355 182.209 450.805 182.209 451.325ZM191.39 454.985H189.98V443.96H191.39V448.79C191.62 448.39 191.95 448.07 192.38 447.83C192.81 447.58 193.31 447.455 193.88 447.455C194.81 447.455 195.505 447.73 195.965 448.28C196.425 448.83 196.655 449.575 196.655 450.515V455H195.245V450.83C195.245 450.33 195.17 449.93 195.02 449.63C194.88 449.32 194.675 449.095 194.405 448.955C194.145 448.815 193.84 448.745 193.49 448.745C193.04 448.745 192.655 448.845 192.335 449.045C192.025 449.245 191.79 449.515 191.63 449.855C191.47 450.195 191.39 450.575 191.39 450.995V454.985ZM201.773 455.18C201.063 455.18 200.433 455.02 199.883 454.7C199.333 454.37 198.903 453.92 198.593 453.35C198.283 452.77 198.128 452.1 198.128 451.34C198.128 450.57 198.278 449.895 198.578 449.315C198.888 448.735 199.308 448.28 199.838 447.95C200.378 447.62 201.003 447.455 201.713 447.455C202.413 447.455 203.018 447.605 203.528 447.905C204.048 448.205 204.448 448.625 204.728 449.165C205.018 449.705 205.163 450.34 205.163 451.07V451.595L198.878 451.61L198.908 450.665H203.753C203.753 450.055 203.568 449.565 203.198 449.195C202.828 448.825 202.333 448.64 201.713 448.64C201.243 448.64 200.838 448.745 200.498 448.955C200.168 449.155 199.913 449.455 199.733 449.855C199.563 450.245 199.478 450.715 199.478 451.265C199.478 452.145 199.678 452.825 200.078 453.305C200.478 453.775 201.053 454.01 201.803 454.01C202.353 454.01 202.803 453.9 203.153 453.68C203.503 453.46 203.738 453.14 203.858 452.72H205.178C204.998 453.5 204.613 454.105 204.023 454.535C203.433 454.965 202.683 455.18 201.773 455.18ZM203.588 444.815L202.298 446.81H201.203L202.208 444.815H203.588ZM210.938 447.605V448.895H210.308C209.638 448.895 209.108 449.09 208.718 449.48C208.338 449.86 208.148 450.405 208.148 451.115V455H206.738V447.68H208.058L208.178 449.15H208.043C208.143 448.67 208.383 448.28 208.763 447.98C209.143 447.67 209.618 447.515 210.188 447.515C210.318 447.515 210.438 447.525 210.548 447.545C210.668 447.555 210.798 447.575 210.938 447.605ZM215.162 455.18C214.452 455.18 213.822 455.02 213.272 454.7C212.722 454.37 212.292 453.92 211.982 453.35C211.672 452.77 211.517 452.1 211.517 451.34C211.517 450.57 211.667 449.895 211.967 449.315C212.277 448.735 212.697 448.28 213.227 447.95C213.767 447.62 214.392 447.455 215.102 447.455C215.802 447.455 216.407 447.605 216.917 447.905C217.437 448.205 217.837 448.625 218.117 449.165C218.407 449.705 218.552 450.34 218.552 451.07V451.595L212.267 451.61L212.297 450.665H217.142C217.142 450.055 216.957 449.565 216.587 449.195C216.217 448.825 215.722 448.64 215.102 448.64C214.632 448.64 214.227 448.745 213.887 448.955C213.557 449.155 213.302 449.455 213.122 449.855C212.952 450.245 212.867 450.715 212.867 451.265C212.867 452.145 213.067 452.825 213.467 453.305C213.867 453.775 214.442 454.01 215.192 454.01C215.742 454.01 216.192 453.9 216.542 453.68C216.892 453.46 217.127 453.14 217.247 452.72H218.567C218.387 453.5 218.002 454.105 217.412 454.535C216.822 454.965 216.072 455.18 215.162 455.18ZM221.536 455H220.126V447.665H221.401L221.551 448.79C221.781 448.37 222.111 448.045 222.541 447.815C222.981 447.575 223.461 447.455 223.981 447.455C224.941 447.455 225.651 447.73 226.111 448.28C226.571 448.83 226.801 449.575 226.801 450.515V455H225.391V450.83C225.391 450.09 225.231 449.56 224.911 449.24C224.591 448.91 224.161 448.745 223.621 448.745C222.961 448.745 222.446 448.96 222.076 449.39C221.716 449.82 221.536 450.395 221.536 451.115V455ZM227.974 447.665H232.264V448.85H227.974V447.665ZM230.824 455H229.414V445.37H230.824V455ZM234.126 455.18C233.836 455.18 233.581 455.08 233.361 454.88C233.151 454.67 233.046 454.42 233.046 454.13C233.046 453.83 233.151 453.58 233.361 453.38C233.581 453.17 233.836 453.065 234.126 453.065C234.416 453.065 234.666 453.17 234.876 453.38C235.086 453.58 235.191 453.83 235.191 454.13C235.191 454.42 235.086 454.67 234.876 454.88C234.666 455.08 234.416 455.18 234.126 455.18Z" fill="#415366"/>
</svg>
